<?xml version="1.0" encoding="UTF-8"?>
<svg id="Layer_1" xmlns="http://www.w3.org/2000/svg" version="1.1" viewBox="0 0 135 30">
  <!-- Generator: Adobe Illustrator 29.4.0, SVG Export Plug-In . SVG Version: 2.1.0 Build 152)  -->
  <defs>
    <style>
      .st0 {
        fill: #fff;
      }
    </style>
  </defs>
  <path class="st0" d="M15.89,16.82c-3.57,3.13-7.79,2.74-12.18,2.39-.62-.05-2.21.48-1.84-.54s2.09-2,3.15-2.14c.64-2.06,1.01-4.2,1.56-6.29.42-1.62,1.33-3.83,1.56-5.41.02-.16.07-.32.02-.48-.91-.22-2.49-1.3-2.73-2.21-.25-.97,1.69.06,2.22-.23,3.71-.24,8.07-.81,10.49,2.63,2.71,3.85,1.1,9.35-2.25,12.28ZM8.52,16.54c.75.01,1.5.02,2.23-.15,4.02-.94,7.92-8.02,4.03-11.05-1.04-.81-1.98-.78-3.24-.77l-3.02,11.97Z"/>
  <path class="st0" d="M17.24,28.27c-.12-.71.72-.89,1.1-1.28.92-.94,1.92-5.69,2.33-7.19.27-.99.54-2.02.81-3.03.37-1.42.72-2.84,1.1-4.25.05-.21-.23-.18-.35-.33-.28-.33-.24-.7-.23-1.11,1.66-.11,3.33-.14,5-.12.16.86-.57.99-.94,1.56l-1.27,5.18c3.41-.4,3.77-5.06,6.51-6.21.62-.26,1.8-.52,2.47-.49,1.26.05-.55,1.05-.83,1.32-1.71,1.62-1.6,3.44-2.92,5.21-.7.94-1.9,2.04-3.02,2.39-.03.16-.02.15.07.24.17.17.55.34.74.55,1.4,1.54,1.3,5.19,2.4,6.16.55.49,1.39.43,1.66.66.57.47-.66.65-.92.69-2.06.32-3.27-.37-4.23-2.16-.81-1.5-1.08-4.09-2.97-4.4-.1,1.31-1.59,4.36-1.28,5.49.04.14,1,.53.7,1.13h-5.92Z"/>
</svg>